<?xml version="1.0" encoding="UTF-8"?>
<svg width="610px" height="611px" viewBox="0 0 610 611" version="1.1" xmlns="http://www.w3.org/2000/svg" xmlns:xlink="http://www.w3.org/1999/xlink">
    <!-- Generator: Sketch 54.1 (76490) - https://sketchapp.com -->
    <title>SVG Layer</title>
    <desc>Created with Sketch.</desc>
    <g id="Page-1" stroke="none" stroke-width="1" fill="none" fill-rule="evenodd">
        <g id="SVG-Layer" fill-rule="nonzero">
            <g id="Group">
                <circle id="Oval" fill="#FBFBFA" cx="305" cy="305.6" r="304.8"></circle>
                <path d="M427,275.4 L387.8,236.6 L363.7,180.3 C358,168.5 346.2,162.8 334.3,162.8 L275.5,162.8 C263.7,162.8 251.8,168.5 246.1,180.3 L222,236.6 L183.2,275.4 C180.3,278.3 178.7,281.9 178.7,285.6 C178.7,293.8 185.2,300.3 193.4,300.3 C197.5,300.3 201.2,298.7 203.6,295.8 L244.8,254.6 C246,253.4 247.2,251.3 248.1,249.7 L264,215 L264,408.8 C264,418.6 271.8,426.3 281.5,426.3 C291.3,426.3 299,418.5 299,408.8 L299,315 L310.8,315 L310.8,461.9 C310.8,471.7 318.6,479.4 328.3,479.4 C338.1,479.4 345.8,471.6 345.8,461.9 L345.8,215.4 L361.7,250.1 C362.5,252.1 363.7,253.8 365,255 L406.2,296.2 C409.1,299.1 412.7,300.7 416.4,300.7 C424.6,300.7 431.1,294.2 431.1,286 C431.1,281.9 429.4,278.3 427,275.4 L427,275.4 Z" id="Path" fill="#EDAE89"></path>
                <circle id="Oval" fill="#EDAE89" cx="305" cy="121.6" r="29.4"></circle>
                <path d="M410.7,315.4 C410.7,401.1 392.3,503.5 305,503.5 C217.7,503.5 199.3,401.5 199.3,315.4 L187.5,315.4 C187.5,446 228.3,514.9 305,514.9 C381.7,514.9 422.5,445.9 422.5,315.4 L410.7,315.4 Z" id="Path" fill="#747789"></path>
                <polygon id="Path" fill="#E32A21" points="346.2 335 346.2 288.9 263.8 288.9 263.8 326.4 299.3 326 299.3 315.4 310.7 315.4 310.7 335"></polygon>
                <path d="M263.8,290.9 L263.8,215.4 L247.9,250.1 C247.1,252.1 245.9,253.8 244.6,255 L221.8,236.2 L245.9,179.9 C251.6,168.1 263.4,162.4 275.3,162.4 L334,162.4 C345.8,162.4 357.7,168.1 363.4,179.9 L387.5,236.2 L364.7,255 C363.5,253.8 362.3,251.7 361.4,250.1 L346.3,215.4 L346.3,290.5 L263.8,290.9 L263.8,290.9 Z" id="Path" fill="#FF9501"></path>
                <path d="M299.3,402.3 L299.3,409.2 C299.3,419 291.5,426.7 281.8,426.7 C272,426.7 264.3,418.9 264.3,409.2 L264.3,402.3 L299.3,402.3 Z" id="Path" fill="#ACADB8"></path>
                <path d="M222.2,236.7 L221,237.9 L243.8,256.2 L245,255.4 L222.2,236.7 Z M387.8,236.7 L389,237.5 L366.6,256.6 L365,255.4 L387.8,236.7 Z M263.8,326.4 L299.3,326.4 L299.3,328.4 L263.8,328.4 L263.8,326.4 Z M310.7,335 L346.2,335 L346.2,337 L310.7,337 L310.7,335 Z" id="Shape" fill="#AE7351" opacity="0.19"></path>
                <path d="M346.2,455.3 L346.2,462.2 C346.2,472 338.4,479.7 328.7,479.7 C318.9,479.7 311.2,471.9 311.2,462.2 L311.2,455.3 L346.2,455.3 Z" id="Path" fill="#ACADB8"></path>
            </g>
        </g>
    </g>
</svg>